<svg xmlns="http://www.w3.org/2000/svg" width="1033.25" height="1033.25" viewBox="0 0 1033.25 1033.25">
<defs>
<clipPath id="bd-clip-0">
<path clip-rule="nonzero" d="M 0 0 L 1032.5 0 L 1032.5 1032.5 L 0 1032.5 Z M 0 0 "/>
</clipPath>
</defs>
<path fill-rule="nonzero" fill="rgb(100%, 100%, 100%)" fill-opacity="1" d="M 866.488281 957.023438 L 265.523438 957.023438 L 265.523438 140.304688 L 866.488281 140.304688 Z M 866.488281 957.023438 "/>
<g clip-path="url(#bd-clip-0)">
<path fill-rule="nonzero" fill="rgb(23.921204%, 49.803162%, 98.823547%)" fill-opacity="1" d="M 639.667969 852.25 L 420.648438 852.25 L 420.648438 803.144531 L 473.832031 796.226562 L 473.832031 515.4375 L 424.773438 499.535156 L 424.773438 444.886719 L 558.824219 426.902344 L 587.167969 424.105469 L 587.167969 795.539062 L 639.667969 803.144531 Z M 442.382812 285.886719 C 449.414062 268.828125 454.425781 252.75 444.378906 233.675781 C 457.445312 238.710938 463.453125 246.714844 469.464844 257.785156 C 479.511719 251.75 484.523438 242.703125 486.542969 232.679688 C 488.539062 222.628906 490.558594 212.582031 493.59375 202.558594 C 497.609375 192.535156 503.597656 184.484375 515.664062 178.449219 C 509.632812 196.546875 519.679688 206.574219 529.726562 217.617188 C 541.769531 231.679688 551.816406 245.742188 562.839844 258.785156 C 574.90625 238.710938 574.90625 238.710938 584.953125 233.675781 C 573.90625 255.765625 585.949219 275.839844 588.964844 295.933594 C 594.976562 338.09375 571.886719 376.242188 531.742188 385.292969 C 502.621094 391.304688 474.5 388.308594 454.425781 364.199219 C 434.355469 341.109375 431.316406 314.007812 442.382812 285.886719 M 905.039062 -0.00390625 L 127.464844 -0.00390625 C 57.066406 -0.00390625 0 57.0625 0 127.480469 L 0 905.039062 C 0 975.433594 57.066406 1032.5 127.464844 1032.5 L 905.039062 1032.5 C 975.414062 1032.5 1032.480469 975.433594 1032.480469 905.039062 L 1032.480469 127.480469 C 1032.480469 57.0625 975.414062 -0.00390625 905.039062 -0.00390625 "/>
</g>
</svg>
